<?xml version="1.0" encoding="UTF-8"?>
<svg width="18px" height="18px" viewBox="0 0 18 18" version="1.1" xmlns="http://www.w3.org/2000/svg" xmlns:xlink="http://www.w3.org/1999/xlink">
    <!-- Generator: Sketch 43.2 (39069) - http://www.bohemiancoding.com/sketch -->
    <title>ic_radio_button_checked_black_24px (1)</title>
    <desc>Created with Sketch.</desc>
    <defs></defs>
    <g id="wp-translation" stroke="none" stroke-width="1" fill="none" fill-rule="evenodd">
        <g id="Terms-and-Conditions" transform="translate(-1124.000000, -396.000000)">
            <g id="ic_radio_button_checked_black_24px-(1)" transform="translate(1123.000000, 395.000000)">
                <path d="M10,5.83333333 C7.7,5.83333333 5.83333333,7.7 5.83333333,10 C5.83333333,12.3 7.7,14.1666667 10,14.1666667 C12.3,14.1666667 14.1666667,12.3 14.1666667,10 C14.1666667,7.7 12.3,5.83333333 10,5.83333333 Z M10,1.66666667 C5.4,1.66666667 1.66666667,5.4 1.66666667,10 C1.66666667,14.6 5.4,18.3333333 10,18.3333333 C14.6,18.3333333 18.3333333,14.6 18.3333333,10 C18.3333333,5.4 14.6,1.66666667 10,1.66666667 Z M10,16.6666667 C6.31666667,16.6666667 3.33333333,13.6833333 3.33333333,10 C3.33333333,6.31666667 6.31666667,3.33333333 10,3.33333333 C13.6833333,3.33333333 16.6666667,6.31666667 16.6666667,10 C16.6666667,13.6833333 13.6833333,16.6666667 10,16.6666667 Z" id="Shape" fill="#2196F3" fill-rule="nonzero"></path>
                <polygon id="Shape" points="0 0 20 0 20 20 0 20"></polygon>
            </g>
        </g>
    </g>
</svg>