<?xml version="1.0" encoding="UTF-8"?>
<svg width="14px" height="15px" viewBox="0 0 14 15" version="1.1" xmlns="http://www.w3.org/2000/svg" xmlns:xlink="http://www.w3.org/1999/xlink">
    <!-- Generator: Sketch 44.1 (41455) - http://www.bohemiancoding.com/sketch -->
    <title>human-translation-svg</title>
    <desc>Created with Sketch.</desc>
    <defs></defs>
    <g id="wp-translation" stroke="none" stroke-width="1" fill="none" fill-rule="evenodd">
        <g id="Posts-Screen---Step-5--download" transform="translate(-1005.000000, -204.000000)" fill-rule="nonzero" fill="#FF7B12">
            <g id="Body-boxes" transform="translate(224.000000, 155.000000)">
                <g id="post" transform="translate(0.000000, 39.000000)">
                    <g id="human-translation-svg" transform="translate(781.000000, 10.000000)">
                        <path d="M7,6.34375 C5.01375,6.34375 4.61125,3.33375 4.61125,3.33375 C4.375,1.7675 5.0925,0 6.97375,0 C8.86375,0 9.58125,1.7675 9.345,3.33375 C9.345,3.33375 8.98625,6.34375 7,6.34375 Z M7,8.5925 L9.38,7 C11.47125,7 13.335,9.03875 13.335,10.96375 L13.335,13.1425 C13.335,13.1425 10.14125,14.13125 7,14.13125 C3.80625,14.13125 0.665,13.1425 0.665,13.1425 L0.665,10.96375 C0.665,8.995 2.3625,7.04375 4.57625,7.04375 L7,8.5925 Z" id="Shape"></path>
                    </g>
                </g>
            </g>
        </g>
    </g>
</svg>