<?xml version="1.0" encoding="UTF-8"?>
<svg width="13px" height="13px" viewBox="0 0 13 13" version="1.1" xmlns="http://www.w3.org/2000/svg" xmlns:xlink="http://www.w3.org/1999/xlink">
    <!-- Generator: Sketch 44.1 (41455) - http://www.bohemiancoding.com/sketch -->
    <title>ic_help_outline_black_24px-_1_</title>
    <desc>Created with Sketch.</desc>
    <defs></defs>
    <g id="mini" stroke="none" stroke-width="1" fill="none" fill-rule="evenodd">
        <g id="mini-one" transform="translate(-508.000000, -319.000000)" fill-rule="nonzero" fill="#95989A">
            <g id="1" transform="translate(-2.000000, -3.000000)">
                <g id="new-idea">
                    <g id="new-idea-expanded-final">
                        <g id="ic_help_outline_black_24px-_1_" transform="translate(510.000000, 322.000000)">
                            <path d="M6.067,10.267 L7.267,10.267 L7.267,9.067 L6.067,9.067 L6.067,10.267 Z M6.667,0.667 C3.3532915,0.667 0.667,3.3532915 0.667,6.667 C0.667,9.9807085 3.3532915,12.667 6.667,12.667 C9.9807085,12.667 12.667,9.9807085 12.667,6.667 C12.667,5.07570106 12.034859,3.54957758 10.9096407,2.42435931 C9.78442242,1.29914104 8.25829894,0.667 6.667,0.667 Z M6.667,11.467 C4.0160332,11.467 1.867,9.3179668 1.867,6.667 C1.867,4.0160332 4.0160332,1.867 6.667,1.867 C9.3179668,1.867 11.467,4.0160332 11.467,6.667 C11.4636942,9.31659628 9.31659628,11.4636942 6.667,11.467 Z M6.667,3.067 C5.3415166,3.067 4.267,4.1415166 4.267,5.467 L5.467,5.467 C5.467,4.8042583 6.0042583,4.267 6.667,4.267 C7.3297417,4.267 7.867,4.8042583 7.867,5.467 C7.867,6.667 6.067,6.517 6.067,8.467 L7.267,8.467 C7.267,7.117 9.067,6.967 9.067,5.467 C9.067,4.83048042 8.81414358,4.22003103 8.36405627,3.76994373 C7.91396897,3.31985642 7.30351958,3.067 6.667,3.067 Z" id="Shape-56"></path>
                        </g>
                    </g>
                </g>
            </g>
        </g>
    </g>
</svg>